<svg xmlns="http://www.w3.org/2000/svg"  viewBox="0 0 16 16" width="512px" height="512px"><path d="M 7.5 2 C 9.527344 2 10.769531 3.519531 10.769531 5.386719 C 10.769531 5.410156 11.421875 5.902344 11.179688 7.078125 C 11.996094 7.605469 12.023438 9.28125 12 9.75 C 11.992188 9.886719 12 10.375 11.75 10.5 C 11.703125 10.523438 11.65625 10.53125 11.609375 10.53125 C 11.417969 10.53125 11.25 10.351563 11.171875 10.316406 C 11.15625 10.601563 11.058594 10.90625 10.886719 11.195313 C 11.035156 11.378906 11.179688 11.636719 11.179688 11.941406 C 11.179688 12.6875 10.632813 13 9.589844 13 C 8.746094 13 7.839844 12.523438 7.625 12 L 7.375 12 C 7.160156 12.523438 6.253906 13 5.410156 13 C 4.367188 13 3.820313 12.6875 3.820313 11.941406 C 3.820313 11.628906 3.972656 11.367188 4.121094 11.183594 C 3.949219 10.898438 3.855469 10.59375 3.84375 10.308594 C 3.757813 10.347656 3.585938 10.53125 3.386719 10.53125 C 3.34375 10.53125 3.296875 10.519531 3.25 10.496094 C 3 10.375 3.007813 9.886719 3 9.75 C 2.976563 9.28125 3.003906 7.605469 3.820313 7.078125 C 3.578125 5.902344 4.230469 5.410156 4.230469 5.386719 C 4.230469 3.519531 5.472656 2 7.5 2 M 7.5 1 C 5.148438 1 3.410156 2.667969 3.242188 5.015625 C 2.90625 5.492188 2.746094 6.070313 2.769531 6.703125 C 1.949219 7.730469 1.980469 9.421875 2 9.800781 C 2.011719 10.117188 2.039063 11.011719 2.804688 11.394531 C 2.832031 11.40625 2.859375 11.421875 2.886719 11.433594 C 2.84375 11.601563 2.820313 11.769531 2.820313 11.941406 C 2.820313 12.5625 3.074219 14 5.410156 14 C 6.097656 14 6.898438 13.761719 7.5 13.332031 C 8.101563 13.761719 8.902344 14 9.589844 14 C 11.925781 14 12.179688 12.5625 12.179688 11.941406 C 12.179688 11.769531 12.15625 11.601563 12.113281 11.433594 C 12.140625 11.421875 12.167969 11.40625 12.195313 11.394531 C 12.960938 11.011719 12.988281 10.117188 12.996094 9.820313 C 13.015625 9.425781 13.050781 7.730469 12.230469 6.699219 C 12.253906 6.066406 12.09375 5.488281 11.757813 5.011719 C 11.589844 2.664063 9.851563 1 7.5 1 Z"/></svg>